<?xml version="1.0" encoding="iso-8859-1"?>
<!-- Generator: Adobe Illustrator 19.0.0, SVG Export Plug-In . SVG Version: 6.00 Build 0)  -->
<svg version="1.1" id="Layer_1" xmlns="http://www.w3.org/2000/svg" xmlns:xlink="http://www.w3.org/1999/xlink" x="0px" y="0px"
	 viewBox="0 0 513.449 513.449" style="enable-background:new 0 0 513.449 513.449;" xml:space="preserve">
<g transform="translate(1)">
	<polygon style="fill:#FFFFFF;" points="254.758,397.525 9.385,257.449 102.125,204.317 254.758,291.26 	"/>
	<polygon style="fill:#CCCCCC;" points="254.758,11.109 501.098,151.185 254.758,291.26 	"/>
	<polygon style="fill:#FFFFFF;" points="254.758,291.26 9.385,151.185 254.758,11.109 	"/>
	<polygon style="fill:#E2E3E5;" points="452.796,151.185 254.758,281.6 57.687,151.185 254.758,20.77 	"/>
	<polygon style="fill:#E0E0E0;" points="254.758,397.525 501.098,257.449 407.392,204.317 254.758,291.26 	"/>
	<polygon style="fill:#F0F0F0;" points="250.894,291.26 131.106,219.774 37.4,272.906 250.894,397.525 463.423,271.94 
		376.479,223.638 	"/>
	<polygon style="fill:#FFFFFF;" points="254.758,503.789 9.385,363.713 102.125,310.581 254.758,397.525 	"/>
	<polygon style="fill:#CCCCCC;" points="254.758,503.789 501.098,363.713 407.392,310.581 254.758,397.525 	"/>
	<polygon style="fill:#E2E3E5;" points="250.894,397.525 131.106,326.038 37.4,379.17 250.894,503.789 463.423,378.204 
		376.479,329.902 	"/>
	<g>
		<path style="fill:#B6B6B6;" d="M254.758,300.921c-1.932,0-2.898,0-4.83-0.966L4.555,158.913c-2.898-1.932-4.83-4.83-4.83-8.694
			c0-3.864,1.932-6.762,4.83-8.694L130.14,69.072c4.83-0.966,10.626,0,13.525,4.83c2.898,4.83,0.966,10.626-3.864,13.525
			L28.706,151.185l226.053,129.449l227.019-129.449L254.758,21.736l-57.962,30.913c-4.83,2.898-10.626,0.966-13.525-3.864
			c-2.898-4.83-0.966-10.626,3.864-13.525l62.792-33.811c2.898-1.932,6.762-1.932,9.66,0l246.34,140.075
			c2.898,1.932,4.83,4.83,4.83,8.694c0,3.864-1.932,6.762-4.83,8.694l-246.34,141.042
			C258.623,300.921,256.691,300.921,254.758,300.921z"/>
		<path style="fill:#B6B6B6;" d="M254.758,407.185c-1.932,0-2.898,0-4.83-0.966L4.555,265.177c-2.898-1.932-4.83-4.83-4.83-8.694
			c0-3.864,1.932-6.762,4.83-8.694l93.706-53.132c2.898-1.932,6.762-1.932,9.66,0l147.804,84.045l147.804-84.045
			c2.898-1.932,6.762-1.932,9.66,0l93.706,53.132c2.898,1.932,4.83,4.83,4.83,8.694c0,3.864-1.932,6.762-4.83,8.694L259.589,406.219
			C258.623,407.185,256.691,407.185,254.758,407.185z M28.706,257.449l226.053,129.449l227.019-129.449l-73.419-41.54
			l-148.77,84.045c-2.898,1.932-6.762,1.932-9.66,0l-147.804-85.011L28.706,257.449z"/>
		<path style="fill:#B6B6B6;" d="M254.758,513.449c-1.932,0-2.898,0-4.83-0.966L4.555,371.441c-2.898-1.932-4.83-4.83-4.83-8.694
			s1.932-6.762,4.83-8.694l93.706-53.132c2.898-1.932,6.762-1.932,9.66,0l147.804,84.045l147.804-84.045
			c2.898-1.932,6.762-1.932,9.66,0l93.706,53.132c2.898,1.932,4.83,4.83,4.83,8.694s-1.932,6.762-4.83,8.694L259.589,512.483
			C258.623,513.449,256.691,513.449,254.758,513.449z M28.706,363.713l226.053,129.449l227.019-129.449l-73.419-41.54
			l-148.77,84.045c-2.898,1.932-6.762,1.932-9.66,0l-147.804-85.011L28.706,363.713z"/>
		<path style="fill:#B6B6B6;" d="M173.611,59.411c0,5.796-3.864,9.66-9.66,9.66c-5.796,0-9.66-3.864-9.66-9.66s3.864-9.66,9.66-9.66
			C168.781,49.751,173.611,53.615,173.611,59.411"/>
	</g>
</g>
<g>
</g>
<g>
</g>
<g>
</g>
<g>
</g>
<g>
</g>
<g>
</g>
<g>
</g>
<g>
</g>
<g>
</g>
<g>
</g>
<g>
</g>
<g>
</g>
<g>
</g>
<g>
</g>
<g>
</g>
</svg>
