<?xml version="1.0" encoding="iso-8859-1"?>
<!-- Generator: Adobe Illustrator 16.0.0, SVG Export Plug-In . SVG Version: 6.00 Build 0)  -->
<!DOCTYPE svg PUBLIC "-//W3C//DTD SVG 1.1//EN" "http://www.w3.org/Graphics/SVG/1.1/DTD/svg11.dtd">
<svg version="1.1" id="Capa_1" xmlns="http://www.w3.org/2000/svg" xmlns:xlink="http://www.w3.org/1999/xlink" x="0px" y="0px"
	 width="456.187px" height="456.187px" viewBox="0 0 456.187 456.187" style="enable-background:new 0 0 456.187 456.187;"
	 xml:space="preserve">
<g>
	<path d="M419.463,359.738c-0.2-0.604-0.438-1.183-0.786-1.744L253.819,91.354V41.975h-54.476v49.373L33.833,359.041
		c-0.139,0.225-0.216,0.467-0.331,0.697H0v54.474h54.474v-18.158h347.239v18.158h54.474v-54.474H419.463z M205.396,48.028h42.372
		v42.368h-42.372V48.028z M48.421,408.159H6.052v-42.368h42.369V408.159z M54.474,377.896v-17.709L216.461,98.198
		c0.343-0.564,0.532-1.156,0.718-1.75h18.731c0.213,0.611,0.461,1.211,0.815,1.785l164.993,266.854v12.809H54.474z M450.134,408.159
		h-42.368v-42.368h42.368V408.159z"/>
</g>
<g>
</g>
<g>
</g>
<g>
</g>
<g>
</g>
<g>
</g>
<g>
</g>
<g>
</g>
<g>
</g>
<g>
</g>
<g>
</g>
<g>
</g>
<g>
</g>
<g>
</g>
<g>
</g>
<g>
</g>
</svg>
